<svg xmlns="http://www.w3.org/2000/svg" width="1200" height="630" viewBox="0 0 1200 630" role="img" aria-labelledby="title desc">
  <title id="title">Tulsa Prayer Map</title>
  <desc id="desc">A 3D neighborhood prayer map for Tulsa, Oklahoma.</desc>
  <defs>
    <radialGradient id="glow" cx="50%" cy="45%" r="60%">
      <stop offset="0" stop-color="#0798fb" stop-opacity=".32"/>
      <stop offset=".52" stop-color="#071315" stop-opacity=".95"/>
      <stop offset="1" stop-color="#030708"/>
    </radialGradient>
    <linearGradient id="map" x1="0" x2="1">
      <stop offset="0" stop-color="#ea1c24"/>
      <stop offset=".5" stop-color="#ffb302"/>
      <stop offset="1" stop-color="#01d6a5"/>
    </linearGradient>
  </defs>
  <rect width="1200" height="630" fill="url(#glow)"/>
  <g transform="translate(130 105)">
    <path transform="translate(4 14) scale(.18)" fill="#0798fb" d="M47.6 300.4 228.3 469.1c7.5 7 17.4 10.9 27.7 10.9s20.2-3.9 27.7-10.9L464.4 300.4C494.8 272.1 512 232.4 512 190.9v-5.8c0-69.9-50.5-129.5-119.4-141C347 36.5 300.6 51.4 268 84L256 96 244 84c-32.6-32.6-79-47.5-124.6-39.9C50.5 55.6 0 115.2 0 185.1v5.8c0 41.5 17.2 81.2 47.6 109.5z"/>
    <text x="116" y="46" fill="#ffb302" font-family="Inter,Segoe UI,sans-serif" font-size="28" font-weight="850" letter-spacing=".5">TULSA</text>
    <text x="116" y="103" fill="#f8f4e9" font-family="Inter,Segoe UI,sans-serif" font-size="78" font-weight="900">Prayer Map</text>
    <text x="4" y="184" fill="#c5d2d1" font-family="Inter,Segoe UI,sans-serif" font-size="32" font-weight="650">Pray for Tulsa by neighborhood.</text>
  </g>
  <g transform="translate(535 285) rotate(-8)">
    <path d="M0 92h150v72H0zM150 74h132v90H150zM282 40h168v124H282zM450 70h126v94H450zM576 96h170v68H576zM72 164h142v82H72zM214 164h150v104H214zM364 164h144v84H364zM508 164h128v90H508zM142 246h150v88H142zM292 268h146v102H292zM438 248h126v92H438z" fill="url(#map)" opacity=".95"/>
    <path transform="translate(400 86) scale(.18)" fill="#0798fb" stroke="#f8f4e9" stroke-width="26" stroke-linejoin="round" d="M47.6 300.4 228.3 469.1c7.5 7 17.4 10.9 27.7 10.9s20.2-3.9 27.7-10.9L464.4 300.4C494.8 272.1 512 232.4 512 190.9v-5.8c0-69.9-50.5-129.5-119.4-141C347 36.5 300.6 51.4 268 84L256 96 244 84c-32.6-32.6-79-47.5-124.6-39.9C50.5 55.6 0 115.2 0 185.1v5.8c0 41.5 17.2 81.2 47.6 109.5z"/>
  </g>
</svg>
